<svg width="1132" height="494" viewBox="0 0 1132 494" fill="none" xmlns="http://www.w3.org/2000/svg">
<path d="M333.012 57.4806C288.92 50.8477 275.759 54.4212 271.461 53.7756C247.036 50.1067 233.539 14.4298 195.291 34.419C145.03 60.6977 44.4712 255.692 146.007 276.458C208.083 289.146 195.201 212.822 243.508 191.766C310.487 162.559 363.227 226.196 361.978 290.085C361.019 339.01 307.918 432.612 273.578 467.169C211.213 529.938 157.713 467.06 100.215 435.631C118.958 442.39 144.379 435.594 161.874 439.39C185.177 444.432 193.59 472.609 229.305 461.945C279.295 447.017 390.275 245.806 288.812 216.78C220.585 197.26 241.608 301.164 167.32 307.834C103.815 313.527 67.2679 251.679 71.3025 194.549C74.6497 146.872 144.867 17.6107 191.564 3.42308C245.607 -13.0056 288.848 33.7683 333.03 57.4806H333.012Z" fill="white"/>
<path d="M297.541 456.982C310.712 443.821 322.546 412.542 334.145 401.058C350.857 384.49 390.027 378.072 399.44 350.903C417.561 298.639 345.654 158.071 286.05 149.922C238.569 143.432 215.949 178.209 204.495 210.083C202.398 215.167 197.394 226.723 194.847 222.559C178.351 195.48 207.132 142.621 233.583 128.793C327.984 79.4134 405.781 211.237 424.644 286.397C454.274 404.429 374.959 402.662 297.541 457V456.982Z" fill="#81BCDD"/>
<path d="M433 264.71L402.809 202.216C395.415 170.517 411.884 132.803 367.917 111.237C285.226 70.7062 145.063 104.482 158.423 217.424C159.345 225.172 173.157 260.466 171.512 262.127C166.468 267.221 145.714 265.035 140.2 259.526C134.126 253.458 127.871 220.567 127.292 211.192C116.047 25.7138 433 26.5808 433 158.343V264.728V264.71Z" fill="#81BCDD"/>
<path d="M136.237 35C119.244 54.0832 104.828 80.2865 98.827 90.1535C89.5106 106.49 37.3775 113.538 31.7371 148.65C21.7178 210.906 105.945 378.553 186.208 336.428C205.508 326.309 206.838 312.794 211.653 302.418C217.455 289.913 233.674 263.71 237.782 268.3C258.001 317.02 179.09 398.377 108.684 358.204C45.7209 322.279 -39.8579 161.445 25.3399 101.358C30.1693 96.9121 114.739 41.4334 136.237 35Z" fill="white"/>
<path d="M0.0180906 226C3.13019 243.775 27.2309 275.849 30.2344 290.004C37.11 322.402 17.008 348.948 53.2133 373.962C131.83 428.259 295.704 387.721 272.797 266.664C268.835 245.738 245.729 222.992 281.084 227.855C300.68 230.538 305.601 271.059 305.963 287.843C309.889 466.727 0 455.003 0 342.248V226H0.0180906Z" fill="white"/>
<path d="M988.068 180L1027.24 90.4H1056.93L1096.1 180H1064.87L1035.94 104.736H1047.72L1018.79 180H988.068ZM1011.36 164.384L1019.04 142.624H1060.26L1067.94 164.384H1011.36Z" fill="#81BCDD"/>
<path d="M906.721 180V161.44L956.641 103.328L960.353 113.824H908.001V90.4H986.977V108.96L937.057 167.072L933.345 156.576H989.025V180H906.721Z" fill="#81BCDD"/>
<path d="M851.444 123.68H891.38V145.44H851.444V123.68ZM853.492 157.216H898.292V180H823.796V90.4H896.628V113.184H853.492V157.216Z" fill="#81BCDD"/>
<path d="M759.502 180V113.824H733.262V90.4H815.95V113.824H789.71V180H759.502Z" fill="#81BCDD"/>
<path d="M637.171 180V90.4H662.003L707.571 144.928H696.051V90.4H725.491V180H700.659L655.091 125.472H666.611V180H637.171Z" fill="#81BCDD"/>
<path d="M592.421 180V90.4H622.629V180H592.421Z" fill="#81BCDD"/>
<path d="M541.704 182.048C534.195 182.048 526.941 181.195 519.944 179.488C512.947 177.781 507.187 175.563 502.664 172.832L512.392 150.816C516.659 153.291 521.395 155.296 526.6 156.832C531.891 158.283 537.011 159.008 541.96 159.008C544.861 159.008 547.123 158.837 548.744 158.496C550.451 158.069 551.688 157.515 552.456 156.832C553.224 156.064 553.608 155.168 553.608 154.144C553.608 152.523 552.712 151.243 550.92 150.304C549.128 149.365 546.739 148.597 543.752 148C540.851 147.317 537.651 146.635 534.152 145.952C530.653 145.184 527.112 144.203 523.528 143.008C520.029 141.813 516.787 140.235 513.8 138.272C510.899 136.309 508.552 133.749 506.76 130.592C504.968 127.349 504.072 123.339 504.072 118.56C504.072 113.013 505.608 107.979 508.68 103.456C511.837 98.848 516.488 95.1787 522.632 92.448C528.861 89.7173 536.584 88.352 545.8 88.352C551.859 88.352 557.832 88.992 563.72 90.272C569.608 91.552 574.899 93.5147 579.592 96.16L570.504 118.048C566.067 115.829 561.757 114.165 557.576 113.056C553.48 111.947 549.469 111.392 545.544 111.392C542.643 111.392 540.339 111.648 538.632 112.16C536.925 112.672 535.688 113.355 534.92 114.208C534.237 115.061 533.896 116 533.896 117.024C533.896 118.56 534.792 119.797 536.584 120.736C538.376 121.589 540.723 122.315 543.624 122.912C546.611 123.509 549.853 124.149 553.352 124.832C556.936 125.515 560.477 126.453 563.976 127.648C567.475 128.843 570.675 130.421 573.576 132.384C576.563 134.347 578.952 136.907 580.744 140.064C582.536 143.221 583.432 147.147 583.432 151.84C583.432 157.301 581.853 162.336 578.696 166.944C575.624 171.467 571.016 175.136 564.872 177.952C558.728 180.683 551.005 182.048 541.704 182.048Z" fill="#81BCDD"/>
<path d="M1090.38 297.048C1083.13 297.048 1076.43 295.939 1070.29 293.72C1064.23 291.416 1058.94 288.173 1054.42 283.992C1049.98 279.811 1046.52 274.861 1044.05 269.144C1041.57 263.427 1040.34 257.112 1040.34 250.2C1040.34 243.288 1041.57 236.973 1044.05 231.256C1046.52 225.539 1050.02 220.589 1054.54 216.408C1059.07 212.227 1064.4 209.027 1070.54 206.808C1076.77 204.504 1083.6 203.352 1091.02 203.352C1099.9 203.352 1107.79 204.845 1114.7 207.832C1121.7 210.819 1127.46 215.085 1131.98 220.632L1112.66 237.656C1109.84 234.413 1106.77 231.981 1103.44 230.36C1100.2 228.653 1096.57 227.8 1092.56 227.8C1089.23 227.8 1086.2 228.312 1083.47 229.336C1080.83 230.36 1078.57 231.853 1076.69 233.816C1074.81 235.779 1073.36 238.125 1072.34 240.856C1071.31 243.587 1070.8 246.701 1070.8 250.2C1070.8 253.528 1071.31 256.6 1072.34 259.416C1073.36 262.147 1074.81 264.493 1076.69 266.456C1078.57 268.419 1080.78 269.955 1083.34 271.064C1085.99 272.088 1088.93 272.6 1092.18 272.6C1095.59 272.6 1098.92 272.045 1102.16 270.936C1105.4 269.741 1108.86 267.736 1112.53 264.92L1129.42 285.656C1123.96 289.325 1117.73 292.141 1110.74 294.104C1103.74 296.067 1096.96 297.048 1090.38 297.048ZM1103.18 281.816V247.768H1129.42V285.656L1103.18 281.816Z" fill="#81BCDD"/>
<path d="M941.046 295V205.4H965.878L1011.45 259.928H999.926V205.4H1029.37V295H1004.53L958.966 240.472H970.486V295H941.046Z" fill="#81BCDD"/>
<path d="M896.296 295V205.4H926.504V295H896.296Z" fill="#81BCDD"/>
<path d="M790.546 295V205.4H834.706C844.69 205.4 853.479 207.235 861.074 210.904C868.669 214.488 874.599 219.608 878.866 226.264C883.133 232.92 885.266 240.856 885.266 250.072C885.266 259.373 883.133 267.395 878.866 274.136C874.599 280.792 868.669 285.955 861.074 289.624C853.479 293.208 844.69 295 834.706 295H790.546ZM820.754 271.448H833.426C837.693 271.448 841.405 270.637 844.562 269.016C847.805 267.395 850.322 265.005 852.114 261.848C853.906 258.605 854.802 254.68 854.802 250.072C854.802 245.549 853.906 241.709 852.114 238.552C850.322 235.395 847.805 233.005 844.562 231.384C841.405 229.763 837.693 228.952 833.426 228.952H820.754V271.448Z" fill="#81BCDD"/>
<path d="M677.693 295L716.861 205.4H746.557L785.725 295H754.493L725.565 219.736H737.341L708.413 295H677.693ZM700.989 279.384L708.669 257.624H749.885L757.565 279.384H700.989Z" fill="#81BCDD"/>
<path d="M592.046 295V205.4H635.182C643.545 205.4 650.755 206.765 656.814 209.496C662.958 212.227 667.694 216.152 671.022 221.272C674.35 226.307 676.014 232.28 676.014 239.192C676.014 246.104 674.35 252.077 671.022 257.112C667.694 262.061 662.958 265.859 656.814 268.504C650.755 271.149 643.545 272.472 635.182 272.472H608.814L622.254 260.056V295H592.046ZM645.678 295L623.662 262.36H655.662L677.934 295H645.678ZM622.254 263.384L608.814 249.688H633.262C637.443 249.688 640.515 248.749 642.478 246.872C644.526 244.995 645.55 242.435 645.55 239.192C645.55 235.949 644.526 233.389 642.478 231.512C640.515 229.635 637.443 228.696 633.262 228.696H608.814L622.254 215V263.384Z" fill="#81BCDD"/>
<path d="M527.752 295V228.824H501.512V205.4H584.2V228.824H557.96V295H527.752Z" fill="#81BCDD"/>
<path d="M968.796 405V315.4H1012.96C1022.94 315.4 1031.73 317.235 1039.32 320.904C1046.92 324.488 1052.85 329.608 1057.12 336.264C1061.38 342.92 1063.52 350.856 1063.52 360.072C1063.52 369.373 1061.38 377.395 1057.12 384.136C1052.85 390.792 1046.92 395.955 1039.32 399.624C1031.73 403.208 1022.94 405 1012.96 405H968.796ZM999.004 381.448H1011.68C1015.94 381.448 1019.65 380.637 1022.81 379.016C1026.05 377.395 1028.57 375.005 1030.36 371.848C1032.16 368.605 1033.05 364.68 1033.05 360.072C1033.05 355.549 1032.16 351.709 1030.36 348.552C1028.57 345.395 1026.05 343.005 1022.81 341.384C1019.65 339.763 1015.94 338.952 1011.68 338.952H999.004V381.448Z" fill="white"/>
<path d="M910.319 348.68H950.255V370.44H910.319V348.68ZM912.367 382.216H957.167V405H882.671V315.4H955.503V338.184H912.367V382.216Z" fill="white"/>
<path d="M818.377 405V338.824H792.137V315.4H874.825V338.824H848.585V405H818.377Z" fill="white"/>
<path d="M754.171 405V315.4H784.379V405H754.171Z" fill="white"/>
<path d="M632.046 405V315.4H656.878L692.718 373.896H679.662L714.478 315.4H739.31L739.566 405H712.046L711.79 356.872H716.142L692.334 396.936H679.022L654.19 356.872H659.566V405H632.046Z" fill="white"/>
<path d="M587.296 405V315.4H617.504V405H587.296Z" fill="white"/>
<path d="M508.296 405V315.4H538.504V381.576H578.952V405H508.296Z" fill="white"/>
</svg>
