<svg width="1254" height="394" viewBox="0 0 1254 394" fill="none" xmlns="http://www.w3.org/2000/svg">
<path d="M265.334 45.7987C230.203 40.5138 219.716 43.361 216.292 42.8466C196.831 39.9234 186.077 11.4972 155.602 27.4239C115.556 48.3619 35.434 203.727 116.334 220.273C165.794 230.382 155.53 169.569 194.02 152.793C247.386 129.522 289.408 180.225 288.413 231.13C287.649 270.112 245.339 344.691 217.979 372.225C168.288 422.237 125.661 372.138 79.8484 347.096C94.783 352.482 115.037 347.067 128.977 350.091C147.544 354.109 154.247 376.559 182.704 368.063C222.534 356.168 310.959 195.85 230.117 172.723C175.755 157.171 192.506 239.958 133.316 245.272C82.7172 249.808 53.5977 200.53 56.8123 155.011C59.4792 117.023 115.426 14.0316 152.633 2.7274C195.692 -10.3625 230.145 26.9055 265.348 45.7987H265.334Z" fill="white"/>
<path d="M237.071 364.108C247.565 353.622 256.994 328.7 266.236 319.55C279.551 306.349 310.76 301.235 318.26 279.588C332.699 237.945 275.405 125.946 227.915 119.453C190.084 114.282 172.061 141.991 162.935 167.387C161.264 171.438 157.277 180.646 155.247 177.327C142.104 155.752 165.036 113.636 186.111 102.618C261.327 63.2739 323.313 168.307 338.342 228.192C361.95 322.236 298.755 320.828 237.071 364.122V364.108Z" fill="#81BCDD"/>
<path d="M345 210.912L320.945 161.119C315.053 135.862 328.176 105.814 293.144 88.6304C227.259 56.3366 115.582 83.2481 126.227 173.236C126.961 179.41 137.966 207.531 136.655 208.855C132.637 212.913 116.1 211.172 111.707 206.782C106.867 201.947 101.883 175.74 101.422 168.271C92.4628 20.4881 345 21.1789 345 126.163V210.927V210.912Z" fill="#81BCDD"/>
<path d="M108.549 27.8868C95.0091 43.0917 83.5227 63.9697 78.7413 71.8313C71.3183 84.8476 29.7804 90.463 25.2863 118.439C17.3032 168.043 84.4127 301.618 148.363 268.055C163.741 259.992 164.801 249.224 168.637 240.957C173.26 230.993 186.183 210.115 189.456 213.772C205.566 252.591 142.692 317.413 86.5952 285.405C36.4282 256.781 -31.7582 128.634 20.1892 80.7584C24.0372 77.2164 91.4196 33.0127 108.549 27.8868Z" fill="white"/>
<path d="M0.014414 180.07C2.49403 194.232 21.6967 219.788 24.0898 231.066C29.568 256.88 13.5514 278.03 42.3986 297.961C105.038 341.223 235.607 308.924 217.356 212.47C214.199 195.796 195.789 177.673 223.959 181.548C239.572 183.686 243.493 215.971 243.781 229.344C246.91 371.873 0 362.531 0 272.692V180.07H0.014414Z" fill="white"/>
<path d="M1101.94 261L1157.02 135H1198.78L1253.86 261H1209.94L1169.26 155.16H1185.82L1145.14 261H1101.94ZM1134.7 239.04L1145.5 208.44H1203.46L1214.26 239.04H1134.7Z" fill="#81BCDD"/>
<path d="M987.545 261V234.9L1057.74 153.18L1062.96 167.94H989.345V135H1100.4V161.1L1030.2 242.82L1024.98 228.06H1103.28V261H987.545Z" fill="#81BCDD"/>
<path d="M909.812 181.8H965.972V212.4H909.812V181.8ZM912.692 228.96H975.692V261H870.932V135H973.352V167.04H912.692V228.96Z" fill="#81BCDD"/>
<path d="M780.518 261V167.94H743.618V135H859.898V167.94H822.998V261H780.518Z" fill="#81BCDD"/>
<path d="M608.49 261V135H643.41L707.49 211.68H691.29V135H732.69V261H697.77L633.69 184.32H649.89V261H608.49Z" fill="#81BCDD"/>
<path d="M545.561 261V135H588.041V261H545.561Z" fill="#81BCDD"/>
<path d="M474.24 263.88C463.68 263.88 453.48 262.68 443.64 260.28C433.8 257.88 425.7 254.76 419.34 250.92L433.02 219.96C439.02 223.44 445.68 226.26 453 228.42C460.44 230.46 467.64 231.48 474.6 231.48C478.68 231.48 481.86 231.24 484.14 230.76C486.54 230.16 488.28 229.38 489.36 228.42C490.44 227.34 490.98 226.08 490.98 224.64C490.98 222.36 489.72 220.56 487.2 219.24C484.68 217.92 481.32 216.84 477.12 216C473.04 215.04 468.54 214.08 463.62 213.12C458.7 212.04 453.72 210.66 448.68 208.98C443.76 207.3 439.2 205.08 435 202.32C430.92 199.56 427.62 195.96 425.1 191.52C422.58 186.96 421.32 181.32 421.32 174.6C421.32 166.8 423.48 159.72 427.8 153.36C432.24 146.88 438.78 141.72 447.42 137.88C456.18 134.04 467.04 132.12 480 132.12C488.52 132.12 496.92 133.02 505.2 134.82C513.48 136.62 520.92 139.38 527.52 143.1L514.74 173.88C508.5 170.76 502.44 168.42 496.56 166.86C490.8 165.3 485.16 164.52 479.64 164.52C475.56 164.52 472.32 164.88 469.92 165.6C467.52 166.32 465.78 167.28 464.7 168.48C463.74 169.68 463.26 171 463.26 172.44C463.26 174.6 464.52 176.34 467.04 177.66C469.56 178.86 472.86 179.88 476.94 180.72C481.14 181.56 485.7 182.46 490.62 183.42C495.66 184.38 500.64 185.7 505.56 187.38C510.48 189.06 514.98 191.28 519.06 194.04C523.26 196.8 526.62 200.4 529.14 204.84C531.66 209.28 532.92 214.8 532.92 221.4C532.92 229.08 530.7 236.16 526.26 242.64C521.94 249 515.46 254.16 506.82 258.12C498.18 261.96 487.32 263.88 474.24 263.88Z" fill="#81BCDD"/>
</svg>
